<svg id="Layer_1" data-name="Layer 1" xmlns="http://www.w3.org/2000/svg" viewBox="0 0 216.5 191"><defs><style>.cls-1,.cls-3{fill:#7d2b89;}.cls-1{stroke:#7d2b89;stroke-miterlimit:10;stroke-width:2px;}.cls-2{fill:#bcaec4;}</style></defs><title>neuron</title><circle class="cls-1" cx="116.5" cy="84.83" r="29.33"/><circle class="cls-2" cx="121.33" cy="79.67" r="13.17"/><path class="cls-3" d="M134.5,61.68s14-18.51,33.33-19.85,11.67-18,11.67-18,6.33,15.51-3.33,18.92c0,0,16.67,3.08,28-15.59,0,0-6.33,18-24,19,0,0-19.33-1-23,3.67,0,0,21,0,25,5.67,0,0-14.34-5.67-29-2,0,0-9.06,8.7-10.36,18.35"/><path class="cls-3" d="M145.83,84.83s15-6.33,23.5,6,6.5,17.33,14.17,18c0,0-6,3.33-10.33-4.67,0,0,3.67,19.67,23.67,12.33,0,0-3.67,6.28-16.67,1.64a28.68,28.68,0,0,1-13.33-19s-2,13.69,4.5,20.68c0,0-8.81-10.06-8.5-22.35,0,0-5.33-7.33-12-3,0,0-10.22,7.23-13,7"/><path class="cls-3" d="M124.87,56.71s9-35.55-23.37-32.88c0,0-8.67-.33-9.33-5.67,0,0-.67,5.33,4,7.67,0,0-13.67,2.33-15-11.33,0,0-2.33,14,11.33,15.67S111,30,113.1,35.61s0.07,17.32-4.93,21.11"/><path class="cls-3" d="M98.5,64.83s2-5.57-23.33-8.12S60.83,31.17,60.83,31.17s-5,10.33-5,14-4-1.67-1.67-21.33c0,0-9.8,19-.73,28S66,63.5,74.06,64.83c0,0-9.59,3.29-12.9,3,0,0,24.33,1.67,30,7.33"/><path class="cls-3" d="M87.17,84.83s-5,11-18.33,8-36.33-3-41.33,7c0,0,18-10.67,35.33-1.67s30-.67,30-0.67"/><path class="cls-3" d="M62.83,98.17s-5.16,8-13.24,8c0,0,12.65,1.87,19.22-5.54"/><path class="cls-3" d="M124.87,114.17a38,38,0,0,0,26.3,20.33c19,4,19,25.33,16.17,31.33,0,0,10.83-13.67,3.83-25.83s-21.33-14.14-25.33-20.15-6.86-14.68-4.43-19.51"/><path class="cls-3" d="M151.17,134.5s7.67,12,5,18.67c0,0,5.36-5,.56-16.78"/><path class="cls-3" d="M98.54,109.5s-4.63,12,0,28c0,0,4.46,18.5-16.29,5s-29.5-3-29.5-3S44,153,41.25,160.25c0,0,11.33-20,18.92-18.25S77.53,148.58,81,153.17,107.83,162,108.17,140s4.93-26,4.93-26"/><circle class="cls-3" cx="41.25" cy="160.25" r="6.58"/></svg>